<?xml version="1.0" encoding="UTF-8"?>
<svg id="Layer_1" data-name="Layer 1" xmlns="http://www.w3.org/2000/svg" viewBox="0 0 32 32">
  <defs>
    <style>
      .cls-1 {
        fill: #ffe12e;
      }
    </style>
  </defs>
  <g id="_01" data-name="01">
    <path class="cls-1" d="M23.42,28.72c-.22,0-.43-.05-.62-.15l-6.8-3.57-6.8,3.57c-.65.34-1.46.09-1.8-.56-.14-.26-.18-.56-.13-.85l1.3-7.57-5.5-5.36c-.53-.51-.54-1.36-.02-1.89.2-.21.47-.35.76-.39l7.6-1.1,3.4-6.89c.39-.66,1.24-.88,1.9-.49.2.12.37.29.49.49l3.4,6.89,7.6,1.1c.73.11,1.23.78,1.13,1.51-.04.29-.18.56-.39.76l-5.5,5.36,1.3,7.57c.12.73-.36,1.42-1.09,1.54-.07.01-.15.02-.23.02"/>
  </g>
</svg>